<?xml version="1.0" encoding="UTF-8"?>
<svg xmlns="http://www.w3.org/2000/svg" xmlns:xlink="http://www.w3.org/1999/xlink" width="295.04pt" height="159.43pt" viewBox="0 0 295.04 159.43" version="1.1">
<defs>
<clipPath id="clip1">
  <path d="M 0 0 L 295.039063 0 L 295.039063 159.429688 L 0 159.429688 Z M 0 0 "/>
</clipPath>
</defs>
<g id="surface1">
<path style=" stroke:none;fill-rule:evenodd;fill:rgb(100%,100%,100%);fill-opacity:1;" d="M 41.402344 134.027344 C 27.257813 125.816406 22.023438 116.742188 18.390625 109.746094 C 14.652344 102.539063 12.746094 95.648438 13.027344 87.175781 C 14.269531 56.628906 40.226563 34.707031 79.039063 22.699219 C 98.96875 16.523438 122.605469 13 147.710938 13 C 184.59375 13 217.335938 20.109375 241.207031 32.929688 C 266.742188 46.652344 282.21875 66.796875 282.035156 88.238281 C 282.035156 100.546875 276.648438 118.292969 261 130.609375 C 257.164063 133.867188 253.929688 135.910156 248.4375 139.027344 C 231.097656 148.855469 189.226563 146.0625 166.5 146.0625 C 135.414063 146.0625 121.464844 146.445313 94.527344 145.910156 C 68.542969 145.394531 56.234375 142.914063 41.402344 134.027344 "/>
<g clip-path="url(#clip1)" clip-rule="nonzero">
<path style="fill:none;stroke-width:260;stroke-linecap:round;stroke-linejoin:round;stroke:rgb(100%,100%,100%);stroke-opacity:1;stroke-miterlimit:3.8637;" d="M 414.023438 254.026563 C 272.578125 336.135938 220.234375 426.878125 183.90625 496.839063 C 146.523438 568.909375 127.460938 637.815625 130.273438 722.542188 C 142.695313 1028.010938 402.265625 1247.229688 790.390625 1367.307813 C 989.6875 1429.065625 1226.054688 1464.3 1477.109375 1464.3 C 1845.9375 1464.3 2173.359375 1393.20625 2412.070313 1265.003125 C 2667.421875 1127.776563 2822.1875 926.33125 2820.351563 711.917188 C 2820.351563 588.83125 2766.484375 411.370313 2610 288.20625 C 2571.640625 255.628125 2539.296875 235.198438 2484.375 204.026563 C 2310.976563 105.745313 1892.265625 133.675 1665 133.675 C 1354.140625 133.675 1214.648438 129.846875 945.273438 135.198438 C 685.429688 140.354688 562.34375 165.159375 414.023438 254.026563 Z M 414.023438 254.026563 " transform="matrix(0.1,0,0,-0.1,0,159.43)"/>
</g>
<path style=" stroke:none;fill-rule:evenodd;fill:rgb(92.89856%,10.998535%,14.099121%);fill-opacity:1;" d="M 41.402344 134.027344 C 27.257813 125.816406 22.023438 116.742188 18.390625 109.753906 C 14.652344 102.539063 12.746094 95.648438 13.027344 87.175781 C 14.269531 56.628906 40.226563 34.707031 79.039063 22.699219 C 98.96875 16.523438 122.605469 13 147.710938 13 C 184.59375 13.007813 217.335938 20.117188 241.207031 32.929688 C 266.742188 46.652344 282.21875 66.796875 282.035156 88.238281 C 282.035156 100.546875 276.648438 118.292969 261.003906 130.609375 C 257.164063 133.867188 253.933594 135.910156 248.4375 139.027344 C 231.097656 148.855469 189.226563 146.0625 166.507813 146.0625 C 135.414063 146.0625 121.464844 146.445313 94.527344 145.914063 C 68.542969 145.394531 56.234375 142.914063 41.402344 134.027344 "/>
<path style="fill:none;stroke-width:215.13;stroke-linecap:round;stroke-linejoin:round;stroke:rgb(92.89856%,10.998535%,14.099121%);stroke-opacity:1;stroke-miterlimit:3.8637;" d="M 414.023438 254.026563 C 272.578125 336.135938 220.234375 426.878125 183.90625 496.760938 C 146.523438 568.909375 127.460938 637.815625 130.273438 722.542188 C 142.695313 1028.010938 402.265625 1247.229688 790.390625 1367.307813 C 989.6875 1429.065625 1226.054688 1464.3 1477.109375 1464.3 C 1845.9375 1464.221875 2173.359375 1393.128125 2412.070313 1265.003125 C 2667.421875 1127.776563 2822.1875 926.33125 2820.351563 711.917188 C 2820.351563 588.83125 2766.484375 411.370313 2610.039063 288.20625 C 2571.640625 255.628125 2539.335938 235.198438 2484.375 204.026563 C 2310.976563 105.745313 1892.265625 133.675 1665.078125 133.675 C 1354.140625 133.675 1214.648438 129.846875 945.273438 135.159375 C 685.429688 140.354688 562.34375 165.159375 414.023438 254.026563 Z M 414.023438 254.026563 " transform="matrix(0.1,0,0,-0.1,0,159.43)"/>
<path style=" stroke:none;fill-rule:evenodd;fill:rgb(100%,94.898987%,0%);fill-opacity:1;" d="M 41.402344 134.027344 C 27.257813 125.816406 22.023438 116.742188 18.390625 109.753906 C 14.652344 102.539063 12.746094 95.648438 13.027344 87.175781 C 14.269531 56.628906 40.226563 34.707031 79.039063 22.699219 C 98.96875 16.523438 122.605469 13 147.710938 13 C 184.59375 13.007813 217.335938 20.117188 241.207031 32.929688 C 266.742188 46.652344 282.21875 66.796875 282.035156 88.238281 C 282.035156 100.546875 276.648438 118.292969 261.003906 130.609375 C 257.164063 133.867188 253.933594 135.910156 248.4375 139.027344 C 231.097656 148.855469 189.226563 146.0625 166.507813 146.0625 C 135.414063 146.0625 121.464844 146.445313 94.527344 145.914063 C 68.542969 145.394531 56.234375 142.914063 41.402344 134.027344 "/>
<path style="fill:none;stroke-width:14.237;stroke-linecap:butt;stroke-linejoin:miter;stroke:rgb(100%,94.898987%,0%);stroke-opacity:1;stroke-miterlimit:4;" d="M 414.023438 254.026563 C 272.578125 336.135938 220.234375 426.878125 183.90625 496.760938 C 146.523438 568.909375 127.460938 637.815625 130.273438 722.542188 C 142.695313 1028.010938 402.265625 1247.229688 790.390625 1367.307813 C 989.6875 1429.065625 1226.054688 1464.3 1477.109375 1464.3 C 1845.9375 1464.221875 2173.359375 1393.128125 2412.070313 1265.003125 C 2667.421875 1127.776563 2822.1875 926.33125 2820.351563 711.917188 C 2820.351563 588.83125 2766.484375 411.370313 2610.039063 288.20625 C 2571.640625 255.628125 2539.335938 235.198438 2484.375 204.026563 C 2310.976563 105.745313 1892.265625 133.675 1665.078125 133.675 C 1354.140625 133.675 1214.648438 129.846875 945.273438 135.159375 C 685.429688 140.354688 562.34375 165.159375 414.023438 254.026563 Z M 414.023438 254.026563 " transform="matrix(0.1,0,0,-0.1,0,159.43)"/>
<path style=" stroke:none;fill-rule:evenodd;fill:rgb(0%,47.499084%,75.698853%);fill-opacity:1;" d="M 48.789063 126.835938 C 34.984375 116.996094 34.144531 115.945313 28.09375 105.410156 C 24.648438 99.414063 23.523438 91.996094 23.78125 84.945313 C 24.601563 60.398438 51.175781 39.78125 86.90625 29.792969 C 105.25 24.648438 125.242188 22.214844 148.351563 22.214844 C 216.464844 22.214844 270.019531 49.484375 271.105469 86.789063 C 271.261719 99.132813 266.578125 113.554688 251.183594 124.554688 C 251.183594 124.554688 236.214844 135.300781 227.878906 133.984375 C 226.355469 133.746094 223.125 133.570313 220.574219 131.773438 C 219.710938 131.179688 218.300781 130.332031 218.300781 130.332031 C 218.300781 130.332031 213.355469 136.863281 202.703125 132.304688 C 202.703125 132.304688 191.710938 136.320313 179.800781 130.332031 C 167.875 124.339844 164.433594 113.59375 163.332031 104.773438 L 163.195313 118.832031 C 163.195313 118.832031 163.609375 126.820313 157.40625 130.8125 C 154.601563 132.621094 144.871094 137.085938 136.535156 126.957031 C 136.535156 126.957031 129.03125 133.085938 119.449219 133.230469 C 109.875 133.363281 103.195313 129.570313 101.886719 128.472656 C 101.886719 128.472656 91.003906 140.941406 78.738281 128.199219 C 78.738281 128.199219 73.921875 134.125 67.238281 133.78125 C 60.554688 133.4375 52.371094 128.769531 48.789063 126.835938 "/>
<path style="fill:none;stroke-width:12.655;stroke-linecap:butt;stroke-linejoin:miter;stroke:rgb(0%,47.499084%,75.698853%);stroke-opacity:1;stroke-miterlimit:4;" d="M 487.890625 325.940625 C 349.84375 424.339063 341.445313 434.846875 280.9375 540.198438 C 246.484375 600.159375 235.234375 674.339063 237.8125 744.846875 C 246.015625 990.315625 511.757813 1196.4875 869.0625 1296.370313 C 1052.5 1347.815625 1252.421875 1372.151563 1483.515625 1372.151563 C 2164.648438 1372.151563 2700.195313 1099.45625 2711.054688 726.409375 C 2712.617188 602.971875 2665.78125 458.753125 2511.835938 348.753125 C 2511.835938 348.753125 2362.148438 241.292188 2278.789063 254.45625 C 2263.554688 256.839063 2231.25 258.596875 2205.742188 276.565625 C 2197.109375 282.503125 2183.007813 290.979688 2183.007813 290.979688 C 2183.007813 290.979688 2133.554688 225.667188 2027.03125 271.253125 C 2027.03125 271.253125 1917.109375 231.096875 1798.007813 290.979688 C 1678.75 350.901563 1644.335938 458.3625 1633.320313 546.565625 L 1631.953125 405.979688 C 1631.953125 405.979688 1636.09375 326.096875 1574.0625 286.175 C 1546.015625 268.089063 1448.710938 223.440625 1365.351563 324.729688 C 1365.351563 324.729688 1290.3125 263.440625 1194.492188 261.995313 C 1098.75 260.667188 1031.953125 298.596875 1018.867188 309.573438 C 1018.867188 309.573438 910.039063 184.885938 787.382813 312.307813 C 787.382813 312.307813 739.21875 253.05 672.382813 256.4875 C 605.546875 259.925 523.710938 306.604688 487.890625 325.940625 Z M 487.890625 325.940625 " transform="matrix(0.1,0,0,-0.1,0,159.43)"/>
<path style=" stroke:none;fill-rule:evenodd;fill:rgb(100%,100%,100%);fill-opacity:1;" d="M 52.804688 116.855469 C 39.210938 106.734375 34.71875 97.203125 34.71875 86.1875 C 34.71875 56.023438 84.753906 31.730469 147.59375 31.730469 C 210.441406 31.730469 260.65625 58.058594 260.945313 86.847656 C 260.945313 97.351563 255.722656 111.523438 242.953125 118.21875 L 242.953125 70.035156 C 242.953125 70.035156 243.410156 55.800781 230.515625 54.488281 C 217.632813 53.183594 213.863281 62.585938 214.332031 71.554688 L 214.332031 77.667969 C 214.332031 77.667969 209.742188 73.957031 202.3125 77.882813 C 202.3125 77.882813 189.640625 72.210938 176.3125 81.601563 C 176.3125 81.601563 168.007813 71.109375 152.492188 76.792969 C 152.492188 76.792969 143.320313 72.863281 136.980469 82.914063 C 136.980469 82.914063 118.363281 67.285156 100.054688 82.699219 C 100.054688 82.699219 93.28125 72.421875 81.480469 77.667969 L 81.480469 70.238281 C 81.480469 70.238281 83.011719 53.847656 67.0625 53.847656 C 51.105469 53.847656 52.859375 71.765625 52.859375 71.554688 C 52.859375 71.328125 52.804688 116.855469 52.804688 116.855469 "/>
<path style=" stroke:none;fill-rule:evenodd;fill:rgb(100%,100%,100%);fill-opacity:1;" d="M 71.882813 108.097656 L 71.882813 116.972656 C 71.882813 120.480469 69.382813 123.339844 66.300781 123.339844 C 63.222656 123.339844 60.71875 120.480469 60.71875 116.972656 L 60.71875 67.988281 C 60.71875 64.464844 63.222656 61.617188 66.300781 61.617188 C 69.382813 61.617188 71.882813 64.464844 71.882813 67.988281 L 71.882813 94.457031 L 83.027344 85.390625 C 84.023438 84.402344 85.40625 83.78125 86.929688 83.78125 C 89.96875 83.78125 92.429688 86.238281 92.429688 89.273438 C 92.429688 90.617188 91.949219 91.851563 91.152344 92.804688 L 80.570313 101.214844 L 94.277344 114.574219 C 94.941406 115.488281 95.332031 116.609375 95.332031 117.824219 C 95.332031 120.859375 92.871094 123.320313 89.832031 123.320313 C 88.558594 123.320313 87.386719 122.894531 86.453125 122.167969 Z M 97.234375 103.207031 C 97.234375 92.308594 106.367188 83.464844 117.636719 83.464844 C 128.90625 83.464844 138.042969 92.308594 138.042969 103.207031 C 138.042969 114.113281 128.90625 122.949219 117.636719 122.949219 C 106.367188 122.949219 97.234375 114.113281 97.234375 103.207031 Z M 108.328125 103.207031 C 108.328125 98.230469 112.496094 94.207031 117.636719 94.207031 C 122.773438 94.207031 126.941406 98.230469 126.941406 103.207031 C 126.941406 108.171875 122.773438 112.210938 117.636719 112.210938 C 112.496094 112.210938 108.328125 108.171875 108.328125 103.207031 Z M 153.617188 100.976563 L 153.617188 116.699219 C 153.617188 120.21875 151.152344 123.066406 148.128906 123.066406 C 145.089844 123.066406 142.628906 120.21875 142.628906 116.699219 L 142.628906 90.082031 C 142.628906 86.566406 145.089844 83.703125 148.128906 83.703125 C 149.546875 83.703125 150.851563 84.339844 151.832031 85.375 C 151.832031 85.375 159.585938 79.546875 167.738281 85.148438 C 175.101563 90.222656 169.066406 98.074219 163.632813 94.339844 C 158.203125 90.59375 154.585938 94.207031 154.101563 97.589844 C 153.617188 100.976563 153.617188 100.976563 153.617188 100.976563 Z M 203.203125 120.125 C 200.128906 121.914063 196.511719 122.949219 192.644531 122.949219 C 181.425781 122.949219 172.328125 114.257813 172.328125 103.539063 C 172.328125 92.820313 181.425781 84.128906 192.644531 84.128906 C 196.507813 84.128906 200.121094 85.148438 203.199219 86.941406 C 203.199219 86.941406 204.195313 83.832031 208.0625 83.832031 C 211.929688 83.832031 213.253906 87.089844 213.253906 89.382813 C 213.253906 91.675781 213.253906 118 213.253906 118 C 213.253906 118 213.980469 123.191406 208.910156 123.191406 C 203.839844 123.191406 203.203125 120.125 203.203125 120.125 Z M 227.863281 61.972656 L 228.457031 62.089844 C 231.660156 62.089844 233.65625 64.828125 233.65625 68.347656 L 233.65625 117.058594 C 233.65625 120.574219 231.058594 123.4375 227.863281 123.4375 C 224.664063 123.4375 222.070313 120.574219 222.070313 117.058594 L 222.070313 68.347656 C 222.070313 64.828125 224.664063 61.972656 227.863281 61.972656 Z M 183.382813 103.539063 C 183.382813 98.652344 187.527344 94.683594 192.644531 94.683594 C 197.757813 94.683594 201.90625 98.652344 201.90625 103.539063 C 201.90625 108.421875 197.757813 112.394531 192.644531 112.394531 C 187.527344 112.394531 183.382813 108.421875 183.382813 103.539063 "/>
<path style=" stroke:none;fill-rule:evenodd;fill:rgb(0%,47.499084%,75.698853%);fill-opacity:1;" d="M 250.136719 82.875 C 253.601563 82.875 256.410156 80.058594 256.410156 76.601563 C 256.410156 73.140625 253.601563 70.324219 250.136719 70.324219 C 246.640625 70.324219 243.855469 73.140625 243.855469 76.601563 C 243.855469 80.058594 246.640625 82.875 250.136719 82.875 Z M 250.136719 81.386719 C 247.410156 81.386719 245.519531 79.402344 245.519531 76.601563 C 245.519531 73.800781 247.410156 71.816406 250.136719 71.816406 C 252.808594 71.816406 254.753906 73.800781 254.753906 76.601563 C 254.753906 79.402344 252.808594 81.386719 250.136719 81.386719 Z M 251.605469 77.148438 C 252.804688 77.058594 253.460938 76.5625 253.460938 75.308594 C 253.460938 73.71875 252.605469 73.238281 250.832031 73.238281 L 247.550781 73.238281 L 247.550781 80.011719 L 248.980469 80.011719 L 248.980469 77.148438 L 250.101563 77.148438 L 251.605469 80.011719 L 253.25 80.011719 Z M 248.980469 76.136719 L 248.980469 74.285156 L 250.519531 74.285156 C 251.160156 74.285156 252.140625 74.214844 252.140625 75.128906 C 252.140625 75.976563 251.605469 76.15625 250.84375 76.136719 L 248.980469 76.136719 "/>
</g>
</svg>
