<?xml version="1.0" encoding="UTF-8" standalone="no"?>
<!-- Created with Inkscape (http://www.inkscape.org/) -->

<svg
   version="1.1"
   id="svg2"
   width="1446.6267"
   height="344.12"
   viewBox="0 0 1446.6267 344.12"
   sodipodi:docname="WEDEL_Cadbury.eps"
   xmlns:inkscape="http://www.inkscape.org/namespaces/inkscape"
   xmlns:sodipodi="http://sodipodi.sourceforge.net/DTD/sodipodi-0.dtd"
   xmlns="http://www.w3.org/2000/svg"
   xmlns:svg="http://www.w3.org/2000/svg">
  <defs
     id="defs6" />
  <sodipodi:namedview
     id="namedview4"
     pagecolor="#ffffff"
     bordercolor="#000000"
     borderopacity="0.25"
     inkscape:showpageshadow="2"
     inkscape:pageopacity="0.0"
     inkscape:pagecheckerboard="0"
     inkscape:deskcolor="#d1d1d1" />
  <g
     id="g8"
     inkscape:groupmode="layer"
     inkscape:label="ink_ext_XXXXXX"
     transform="matrix(1.3333333,0,0,-1.3333333,0,344.12)">
    <g
       id="g10"
       transform="scale(0.1)">
      <path
         d="M 4.92188,126.16 H 10849.7 V 0 H 4.92188 V 126.16 Z M 10.7227,231.281 V 277.07 H 10848.6 V 231.281 H 10.7227 v 0"
         style="fill:#252f81;fill-opacity:1;fill-rule:nonzero;stroke:none"
         id="path12" />
      <path
         d="m 3282.06,1184.81 c -3.04,-72.53 -59.74,-171.35 -82.79,-200.388 -10.72,-10.152 -29.12,-11.684 -42.88,-4.461 -47.6,61.169 -29.11,167.199 -19.93,232.499 6.14,50.91 29.12,95.86 64.38,133.66 30.66,15.98 50.52,11.6 65.89,-7.22 27.62,-48.02 23.01,-98.81 15.33,-154.09 z m -571.69,188.89 c 0,-17.36 -3.11,-85.67 -22.98,-143.76 -29.12,-103.23 -124.2,-249.979 -174.72,-248.44 -61.36,7.219 -24.55,137.99 9.18,219.28 21.44,46.61 56.7,77.11 90.4,116.29 33.73,26.13 52.09,39.27 98.12,56.63 z m -724.98,113.33 c -4.61,-47.94 -61.32,-169.96 -96.59,-225.2 -65.92,-111.76 -154.78,-267.271 -208.41,-262.81 -50.63,24.59 12.22,183.02 30.58,228 l 62.93,114.8 c 32.15,61 65.85,113.25 137.88,152.44 15.33,8.76 78.18,42.18 73.61,-7.23 z m 911.91,383.57 c -58.24,27.58 -108.76,56.62 -160.93,120.56 -21.39,18.89 -47.48,29.04 -79.64,27.57 -35.26,-2.84 -68.99,-27.57 -68.99,-78.44 24.51,-65.32 42.91,-92.9 76.6,-149.6 42.92,-85.74 61.35,-127.93 56.7,-247.03 -32.15,-14.52 -73.53,-18.82 -108.79,-45.02 -88.9,-46.49 -147.14,-107.49 -200.81,-180.1 -52.09,-78.45 -84.25,-178.76 -93.43,-273.12 -18.44,-27.65 -41.42,-39.33 -75.15,-59.619 -33.69,-10.141 -65.92,-29.039 -108.84,-29.039 -96.54,-5.84 -105.76,142.448 -87.28,213.598 19.86,117.67 47.41,154.02 75.07,276.03 18.36,84.21 73.57,116.17 27.55,180.1 l -21.48,30.58 c -56.71,78.45 -197.7,12.98 -265.16,-31.96 -111.87,-71.23 -163.97,-126.47 -259.05,-249.95 -42.87,-55.17 -70.46,-120.55 -104.19,-180.06 -113.44,-68.39 -237.54,-136.61 -383.18,-177.33 -263.62,-72.54 -507.339,-94.36 -708.073,92.97 -173.262,161.24 -188.586,425.7 -75.141,661.12 105.723,191.71 295.816,409.61 522.711,522.95 111.871,55.24 223.703,101.73 354.053,132.23 213.03,49.32 331.01,52.32 522.64,-27.66 113.36,-44.95 163.96,-177.18 159.35,-286.21 -4.57,-97.28 -59.78,-207.77 -131.81,-284.68 -133.31,-139.45 -274.3,-228.12 -467.43,-280.45 -114.98,-31.96 -254.44,-52.25 -370.959,-1.46 -62.813,27.66 -114.907,68.31 -130.313,127.86 -21.433,85.75 18.442,188.86 65.93,249.86 79.75,101.74 185.472,197.63 331.072,245.57 96.59,31.97 203.85,40.72 312.65,59.55 50.6,10.22 56.74,42.18 27.62,72.6 -47.48,49.41 -312.68,-2.91 -398.5,-37.72 -144.03,-56.62 -285.061,-132.16 -384.717,-248.41 -118.059,-138.07 -177.762,-264.46 -147.18,-444.57 10.758,-71.15 67.426,-148.21 133.391,-180.17 228.39,-110.41 527.236,-50.87 744.916,59.55 160.97,79.9 329.54,197.61 442.91,368.96 58.32,87.28 90.48,203.46 98.12,258.7 18.37,130.69 -7.64,207.76 -59.82,281.75 -32.15,43.65 -73.49,79.99 -128.69,114.87 -64.39,43.57 -245.3,100.27 -314.18,103.12 -174.76,10.13 -364.82,-5.76 -528.78,-63.93 -277.453,-95.89 -413.875,-168.5 -639.195,-357.36 -449.063,-373.34 -473.648,-999.51 -6.109,-1285.798 70.5,-42.114 203.808,-63.93 289.668,-66.852 208.457,-8.601 432.166,39.352 620.756,127.852 73.57,34.886 119.59,55.328 199.23,100.358 -7.6,-75.608 -1.53,-183.03 78.18,-225.288 119.6,-53.633 211.49,23.359 277.45,111.879 l 47.49,66.84 c 68.99,-126.313 108.8,-193.16 275.87,-183.012 93.51,14.59 122.64,46.551 183.99,88.66 26,-36.269 48.98,-72.687 90.35,-98.808 38.38,-13.071 70.54,-15.993 116.56,-5.84 144.03,43.64 199.24,139.371 260.52,254.329 29.12,76.98 36.84,100.19 52.16,148.13 15.34,62.43 22.98,120.52 29.12,175.76 1.5,56.63 12.26,98.81 12.26,146.68 l 1.54,100.27 c 0,31.96 3.03,66.85 -4.61,101.73 98.04,-26.2 157.86,-20.36 265.16,-1.46 -36.77,-87.13 -65.97,-159.89 -102.73,-275.99 -56.75,-216.45 -119.52,-398.04 -13.75,-605.809 42.87,-55.32 95.04,-74.07 183.9,-42.109 101.15,42.109 187.01,197.469 202.35,309.338 49.05,18.9 78.17,30.58 111.83,49.49 -47.49,-111.87 -76.6,-165.66 -45.95,-289.219 41.38,-49.32 85.82,-95.882 199.27,-65.3 67.42,26.121 105.73,46.41 157.9,85.75 21.44,-47.95 36.76,-78.532 104.19,-104.661 69,-8.761 130.27,34.891 173.22,63.942 81.25,71.137 113.41,110.488 159.36,188.858 44.53,65.3 87.36,126.31 137.95,188.85 l 67.43,5.8 -53.64,-92.93 c -10.67,-18.9 -39.79,-74.21 -47.52,-104.64 -22.97,-82.84 -13.75,-149.68 21.52,-209.149 29.12,-34.891 65.85,-40.731 104.19,-40.731 45.98,13.071 88.9,33.352 128.7,58.098 49.13,27.66 157.9,120.621 187.1,156.891 -1.55,-71.149 -42.96,-181.637 85.82,-209.149 61.27,-5.84 176.25,30.43 242.15,108.961 -59.79,-116.332 -128.71,-260.172 -187.03,-373.422 0,-39.187 84.33,-110.328 107.3,-132.16 l 432.28,838.231 c 19.87,36.35 29.09,74.15 21.43,106.12 -1.56,24.66 -27.58,46.4 -52.17,50.78 -50.52,5.77 -85.82,-20.36 -104.18,-53.7 -39.88,-63.93 -93.51,-142.34 -144.07,-201.97 -53.62,-74.07 -140.99,-174.25 -194.66,-175.801 -68.96,20.289 -44.45,66.851 -18.36,138.001 35.18,75.61 93.42,148.18 128.69,222.33 27.58,50.78 15.38,91.43 -50.51,91.43 -64.39,-4.3 -72.04,-21.75 -121.14,-72.61 -47.53,-65.31 -88.85,-116.22 -148.68,-185.98 -44.44,-39.18 -84.31,-82.83 -127.22,-122.01 -41.35,-39.192 -65.94,-71.161 -125.67,-77 -46.03,20.441 -21.4,90.21 -6.15,123.56 38.3,91.43 96.62,156.85 151.75,246.91 7.72,27.66 -10.72,43.56 -24.51,58.08 -35.19,31.97 -78.18,4.38 -125.67,-10.06 -18.4,-7.3 -33.73,-10.22 -64.38,-8.76 33.69,50.79 38.3,91.51 29.12,132.16 -7.65,15.98 -24.47,42.18 -47.52,43.64 -26.1,2.84 -36.78,-1.46 -56.67,-5.84 -41.46,-24.67 -55.21,-40.72 -78.18,-75.53 -13.87,-33.42 -10.76,-33.42 -18.48,-61.08 -10.64,-40.65 -3.04,-94.36 1.57,-107.5 -45.94,-76.94 -30.69,-53.7 -82.79,-124.89 -21.39,-27.66 -39.84,-59.63 -65.84,-87.13 -38.35,-42.27 -61.32,-65.31 -110.34,-91.592 -53.67,-27.508 -82.79,-1.379 -90.47,42.112 73.57,66.84 116.48,111.86 160.93,185.93 44.45,78.49 56.7,148.26 32.23,203.43 -9.26,23.28 -26.08,32.04 -61.35,34.88 -29.12,-10.14 -44.45,-17.44 -72.03,-31.96 -95.01,-71.15 -127.24,-187.33 -156.36,-283.33 -7.61,-68.23 -76.61,-116.18 -76.61,-117.71 -27.58,-26.129 -42.99,-39.192 -95.01,-55.168 -56.74,14.598 -47.55,59.618 -36.8,110.488 27.55,81.29 85.79,164.16 127.16,213.56 39.92,47.87 82.83,82.75 76.68,146.68 -7.64,18.9 -26.01,37.73 -49.05,47.94 -127.24,11.6 -168.58,-127.77 -288.1,-178.71 -20.01,-14.53 -56.78,-23.21 -96.62,-21.82 3.04,43.64 6.15,78.52 -13.79,122.09 -19.94,36.34 -24.55,65.39 -64.39,94.5 -35.27,30.43 -90.43,31.97 -136.34,18.83 0,72.61 76.6,199.08 104.18,264.39 73.57,61.01 111.88,92.97 147.07,172.88 9.26,56.62 -1.46,75.53 -50.52,87.21 -64.39,7.29 -99.66,-34.89 -136.42,-79.91 -21.44,-39.27 -59.74,-63.93 -108.84,-78.45 -62.85,-18.91 -186.97,-29.12 -275.92,0 v 0"
         style="fill:#252f81;fill-opacity:1;fill-rule:nonzero;stroke:none"
         id="path14" />
      <path
         d="m 9530.45,1726.07 c 116.91,364.2 477.15,194.63 0,0 z m -640.27,-178.72 c -93.62,-99.11 -274.3,-58.55 -103.03,137.38 183.06,208.69 380.96,155.75 103.03,-137.38 z m -548.14,166.81 c 14.52,-47.48 -173.34,-154.59 -252.86,-184.64 0.68,157.37 225.01,271.62 252.86,184.64 z m 1120.07,575.96 c 64.12,78.68 119.78,72.15 66.74,-30.35 -67.29,-125.93 -225.94,-302.58 -324.87,-392.01 56.55,184.09 128.73,272.76 258.13,422.36 z m 822.79,-225.82 c 131.3,188.09 292.7,264.46 182.1,90.13 -107.8,-145.99 -215.1,-247.57 -349.2,-367.66 54.9,139.92 92.3,170.27 167.1,277.53 z m 326.3,-535.47 c 3,126.09 -357.4,78.3 -408.9,83.29 -73.3,6.77 -80.7,49.94 -79.9,79.76 133.1,88.05 393.3,326.01 457.5,444.73 59.9,112.63 73.3,161.73 17.9,209.29 -83.1,72.45 -264.4,-58.78 -372.2,-172.5 -156,-165.88 -247.89,-365.04 -316.46,-476.45 -116.56,-88.13 -348.89,-172.42 -378.73,-59.54 49.18,10.82 249.73,97.34 331.82,178.1 119.59,118.79 130.88,272.45 -101.86,233.65 -225.16,-32.04 -400.76,-195.23 -460.7,-451.94 -17.05,-75.3 -142.72,-93.43 -127.74,30.96 5.43,46.87 23.13,78.84 50.98,119.4 113.93,158.28 317.91,277.61 417.95,552.14 72.46,195.17 -117.29,178.18 -226.27,80.06 -148.11,-132.46 -256.64,-291.66 -354.53,-502.11 -241.13,116.63 -520.39,-226.36 -562.5,-338.16 -38.22,-100.03 -408.22,-297.27 -431.36,-95.5 96.44,15.44 520.91,189.63 480.03,342.84 -55.36,209.45 -536.07,5.37 -663.12,-263.24 -32.9,-69.77 -66.2,-198.24 15.33,-258.32 224.47,-140.73 441.76,26.59 609.33,139.76 138.11,-172.19 354.18,-21.28 471.7,82.3 123.24,-143.53 286.66,-68.54 366.7,29.11 159.85,-135.3 429.08,-25.04 564.42,87.22 19.06,-102.51 173.91,-129.48 288.91,-99.97 58.6,14.13 222.7,62.39 304,48.94 33.6,-5.76 58.6,-25.89 64.5,-38.88 8.7,-17.9 42.4,-22.43 43.2,15.06 z m -3873.45,502.58 c -66.87,-74.99 -144.78,-93.04 -234.29,-130.62 -23.18,249.49 384.17,299.59 234.29,130.62 z M 9769.1,1406.9 c -256.13,-7.84 -507.62,-69.47 -778.65,-120.79 -400.66,-74.26 -705.84,-179.53 -1102.34,-280.02 -301.21,-84.668 -565.59,-143.531 -874.74,-197.32 -190.78,-32.418 -639.23,-26.891 -782.88,112.8 -287.25,289.2 99.73,632.85 432.17,718.75 93.69,28.05 50.51,52.95 13.17,63.62 -69.07,21.83 -109.26,43.95 -155.82,100.35 121.98,39.72 325.66,84.75 424.51,246.26 153.45,267.15 -272,246.18 -406.45,188.24 -114.34,-48.49 -321.18,-196.31 -299.62,-353.44 -13.45,-16.98 -209.64,47.86 -33.92,219.9 20.27,18.29 26.62,24.05 18.05,34.12 -8.57,10.06 -44.6,-1.61 -56.2,-5.53 -136.69,-42.03 -369.93,-252.79 -87.1,-340.61 66.97,-21.52 127.97,-13.37 195.74,-20.44 21.41,-21.9 67.97,-61.63 149.86,-95.13 -104.8,-19.89 -331.5,-127.16 -416.48,-188.55 -169.11,-124.17 -318.52,-354.1 -248.36,-552.329 138.83,-359.742 744.1,-385.871 1067.73,-347.453 231.35,29.043 430.12,79.301 625.14,133.231 188.16,53.793 372.57,111.421 576.22,180.871 180.25,60.39 573.12,198.09 820.52,254.79 477.73,110.14 671.89,166.54 1115.68,176.07 281.57,6.53 776.97,-76.46 774.47,-214.8 -1.3,-65.15 71.5,-51.94 84.5,-6.14 97.7,353.64 -888.17,298.16 -1055.2,293.55 z M 6543.67,1173.27 c 102.7,76.73 219.37,-41.48 104.85,-147.67 -118.18,-108.952 -249.64,39.03 -104.85,147.67 z m 691.21,931.44 c 9.53,52.94 8.76,79.68 131.82,79.38 125.27,-0.78 128.16,-35.58 123.36,-62.62 -5,-28.05 -20.26,-90.36 -60.86,-191.17 -41.68,-100.73 -47.02,-115.56 -82.72,-189.32 -34.8,-75.07 -54.31,-127.86 -63.96,-149.76 -9.76,-21.97 -17.86,-48.56 22.13,0.24 41.64,51.93 280.76,321.63 318.67,323.01 44.45,0.54 108.92,-6.15 105.54,-38.95 -3.46,-32.89 -66.77,-330.17 -66.77,-330.17 171.64,230.2 324.01,482.06 553.06,662.17 177.84,139.53 408.11,248.48 625.51,304.96 154.13,39.72 191.63,22.28 180.94,-47.18 -13.36,-80.29 -63.06,-103.34 -104.26,-112.03 -191.28,-35.72 -406.69,-125.7 -529.16,-217.36 -229.82,-170.12 -361.7,-321.56 -531.77,-540.92 -56.67,-73.15 -170.84,-249.18 -232.28,-356.05 -60.39,-108.07 -72.57,-107.46 -169.62,-127.29 -101.6,-21.5 -132.42,-11.68 -123.5,44.73 8.95,56.4 103.35,386.05 108.64,400.88 4.33,14.91 6.83,48.94 -34.73,-2.99 -40.64,-53.17 -179.37,-230.28 -226.93,-293.59 -69.08,-90.17 -109.06,-211.11 -241.57,-222.79 -131.54,-12.75 -137.31,-6.45 -87.98,109.88 48.14,115.29 133.73,300.92 168.85,370.39 34.16,70.6 124.62,307.64 152.59,373.64 28.05,66 65,212.91 65,212.91 v 0"
         style="fill:#252f81;fill-opacity:1;fill-rule:nonzero;stroke:none"
         id="path16" />
    </g>
  </g>
</svg>
